{"title":"Bojack.Horseman.S03.Season.3.Complete.720p.WEBRip.x264-DEFLATE","uid":15711137,"size":5920238631,"categoryP":"video","categoryS":"hd___tv_shows","magnet":"?xt=urn:btih:429d4d618a7b86e3dda438ce0042ee388c2df4f0&amp;dn=Bojack.Horseman.S03.Season.3.Complete.720p.WEBRip.x264-DEFLATE&amp;tr=udp%3A%2F%2Ftracker.leechers-paradise.org%3A6969&amp;tr=udp%3A%2F%2Fzer0day.ch%3A1337&amp;tr=udp%3A%2F%2Fopen.demonii.com%3A1337&amp;tr=udp%3A%2F%2Ftracker.coppersurfer.tk%3A6969&amp;tr=udp%3A%2F%2Fexodus.desync.com%3A6969","seeders":147,"leechers":58,"uploader":"th3d4m4g3r","files":12,"time":1472572594,"description":"Please seed to a least 2.0 ratio so other can enjoy the show too. Thank You.\r\n\r\nBojack.Horseman.S03.Season.3.Complete.720p.WEBRip.x264-DEFLATE\r\nAired: 2016-07-22\r\n\r\nFiles:\r\n\r\nBojack.Horseman.S03E01.720p.WEBRip.X264-DEFLATE.mkv\r\nBojack.Horseman.S03E02.720p.WEBRip.X264-DEFLATE.mkv\r\nBojack.Horseman.S03E03.720p.WEBRip.X264-DEFLATE.mkv\r\nBojack.Horseman.S03E04.720p.WEBRip.X264-DEFLATE.mkv\r\nBojack.Horseman.S03E05.720p.WEBRip.X264-DEFLATE.mkv\r\nBojack.Horseman.S03E06.720p.WEBRip.X264-DEFLATE.mkv\r\nBojack.Horseman.S03E07.720p.WEBRip.X264-DEFLATE.mkv\r\nBojack.Horseman.S03E08.720p.WEBRip.X264-DEFLATE.mkv\r\nBojack.Horseman.S03E09.720p.WEBRip.X264-DEFLATE.mkv\r\nBojack.Horseman.S03E10.720p.WEBRip.X264-DEFLATE.mkv\r\nBojack.Horseman.S03E11.720p.WEBRip.X264-DEFLATE.mkv\r\nBojack.Horseman.S03E12.720p.WEBRip.X264-DEFLATE.mkv\r\n\r\nMediaInfo:\r\n\r\nGeneral\r\nComplete name : Bojack.Horseman.S03E01.720p.WEBRip.X264-DEFLATE.mkv\r\nFormat : Matroska\r\nFile size : 412 MiB\r\nDuration : 25mn 37s\r\nOverall bit rate : 2 248 Kbps\r\nEncoded date : UTC 2016-07-22 00:03:01\r\nWriting application : mkvmerge v9.1.0 ('Little Earthquakes') 64bit\r\nWriting library : libebml v1.3.3 + libmatroska v1.4.4\r\n\r\nVideo\r\nID : 1\r\nFormat : AVC\r\nFormat profile :   \r\nFormat settings, CABAC : Yes\r\nFormat settings, ReFrames : 9 frames\r\nBit rate : 1 820 Kbps\r\nWidth : 1 280 pixels\r\nHeight : 720 pixels\r\nDisplay aspect ratio : 16:9\r\nFrame rate mode : Constant\r\nFrame rate : 23.976 (24000/1001) fps\r\nColor space : YUV\r\nChroma subsampling : 4:2:0\r\nBit depth : 8 bits\r\nScan type : Progressive\r\nBits/(Pixel*Frame) : 0.082\r\nStream size : 334 MiB (81%)\r\nWriting library : x264 core 148 r2705+3 3f5ed56 / tmod 418b0d4 X86_64\r\nEncoding settings : cabac=1 / ref=9 / deblock=1:-1:-1 / analyse=0x3:0x113 / me=umh / subme=10 / psy=1 / fade_compensate=0.00 / psy_rd=1.05:0.00 / mixed_ref=1 / me_range=24 / chroma_me=1 / trellis=2 / 8x8dct=1 / cqm=0 / deadzone=21,11 / fast_pskip=0 / chroma_qp_offset=-2 / threads=12 / lookahead_threads=2 / sliced_threads=0 / nr=0 / decimate=0 / interlaced=0 / bluray_compat=0 / constrained_intra=0 / fgo=0 / bframes=9 / b_pyramid=2 / b_adapt=2 / b_bias=0 / direct=3 / weightb=1 / open_gop=0 / weightp=2 / keyint=250 / keyint_min=23 / scenecut=40 / intra_refresh=0 / rc=crf / mbtree=0 / crf=18.0000 / qcomp=0.60 / qpmin=0:0:0 / qpmax=69:69:69 / qpstep=4 / ip_ratio=1.40 / pb_ratio=1.30 / aq=3:0.90 / aq-sensitivity=10.00 / aq-factor=1.00:1.00:1.00 / aq2=0 / aq3=0\r\nLanguage : English\r\nDefault : Yes\r\nForced : No\r\n\r\nAudio\r\nID : 2\r\nFormat : AC-3\r\nMode extension : CM (complete main)\r\nBit rate mode : Constant\r\nBit rate : 384 Kbps\r\nChannel(s) : 6 channels\r\nChannel positions : Front: L C R, Side: L R, LFE\r\nSampling rate : 48.0 KHz\r\nFrame rate : 31.250 fps (1536 spf)\r\nCompression mode : Lossy\r\nStream size : 70.4 MiB (17%)\r\nLanguage : English\r\nDefault : Yes\r\nForced : No\r\n\r\nText #1\r\nID : 3\r\nFormat : UTF-8\r\nTitle : English\r\nLanguage : English\r\nDefault : No\r\nForced : No\r\n\r\nText #2\r\nID : 4\r\nFormat : UTF-8\r\nTitle : English (SDH)\r\nLanguage : English\r\nDefault : No\r\nForced : No\r\n\r\nText #3\r\nID : 5\r\nFormat : UTF-8\r\nTitle : French\r\nLanguage : French\r\nDefault : No\r\nForced : No\r\n\r\nText #4\r\nID : 6\r\nFormat : UTF-8\r\nTitle : German\r\nLanguage : German\r\nDefault : No\r\nForced : No\r\n\r\nText #5\r\nID : 7\r\nFormat : UTF-8\r\nTitle : Italian\r\nLanguage : Italian\r\nDefault : No\r\nForced : No\r\n\r\nText #6\r\nID : 8\r\nFormat : UTF-8\r\nTitle : Spanish\r\nLanguage : Spanish\r\nDefault : No\r\nForced : No","torrent":{"xt":"urn:btih:429d4d618a7b86e3dda438ce0042ee388c2df4f0","amp;dn":"Bojack.Horseman.S03.Season.3.Complete.720p.WEBRip.x264-DEFLATE","amp;tr":["udp%3A%2F%2Ftracker.leechers-paradise.org%3A6969","udp%3A%2F%2Fzer0day.ch%3A1337","udp%3A%2F%2Fopen.demonii.com%3A1337","udp%3A%2F%2Ftracker.coppersurfer.tk%3A6969","udp%3A%2F%2Fexodus.desync.com%3A6969"],"infoHash":"429d4d618a7b86e3dda438ce0042ee388c2df4f0","infoHashBuffer":{"type":"Buffer","data":[66,157,77,97,138,123,134,227,221,164,56,206,0,66,238,56,140,45,244,240]},"announce":[],"urlList":[]}}